# xmcd
#
# Track frame offsets: 
#        150
#        19870
#        38175
#        55352
#        71327
#        88450
#        103800
#        119027
#        144097
#        167117
#        185485
#        202517
#
# Disc length: 2991 seconds
#
# Revision: 1
# Processed by: cddbd v1.5.2PL0 Copyright (c) Steve Scherf et al.
# Submitted via: ExactAudioCopy v1.3
#
DISCID=a80bad0c
DTITLE=Mary Chapin Carpenter - Come on Come On
DYEAR=1992
DGENRE=Country
TTITLE0=The Hard Way
TTITLE1=He Thinks He'll Keep Her
TTITLE2=Rhythm of the Blues
TTITLE3=I Feel Lucky
TTITLE4=The Bug
TTITLE5=Not Too Much to Ask
TTITLE6=Passionate Kisses
TTITLE7=Only a Dream
TTITLE8=I Am a Town
TTITLE9=Walking Through Fire
TTITLE10=I Take My Chances
TTITLE11=Come on Come On
EXTD=
EXTT0=
EXTT1=
EXTT2=
EXTT3=
EXTT4=
EXTT5=
EXTT6=
EXTT7=
EXTT8=
EXTT9=
EXTT10=
EXTT11=
PLAYORDER=
